<svg xmlns="http://www.w3.org/2000/svg" viewBox="0 0 720 1560" preserveAspectRatio="xMidYMid slice">
  <defs>
    <linearGradient id="bg" x1="0.1" y1="0" x2="0.9" y2="1">
      <stop offset="0%" stop-color="#f0faf0"/>
      <stop offset="45%" stop-color="#e4f5e4"/>
      <stop offset="100%" stop-color="#cceacc"/>
    </linearGradient>
    <!-- ICON SYMBOLS — all centered at 0,0 ~24px box -->
    <symbol id="ic-chat" viewBox="-14 -14 28 28">
      <path d="M-9-7 Q-9-12-4-12 L8-12 Q13-12 13-7 L13 1 Q13 6 8 6 L2 6 L-4 11 L-2 6 L-4 6 Q-9 6-9 1z" fill="none" stroke-linecap="round" stroke-linejoin="round"/>
      <line x1="-4" y1="-5" x2="8" y2="-5"/><line x1="-4" y1="0" x2="4" y2="0"/>
    </symbol>
    <symbol id="ic-video" viewBox="-14 -14 28 28">
      <rect x="-13" y="-7" width="16" height="14" rx="2" fill="none" stroke-linecap="round"/>
      <polyline points="3,-5 13,-9 13,9 3,5" fill="none" stroke-linecap="round" stroke-linejoin="round"/>
    </symbol>
    <symbol id="ic-phone" viewBox="-14 -14 28 28">
      <path d="M-5-12 Q-7-12-7-10 L-7 10 Q-7 12-5 12 L5 12 Q7 12 7 10 L7-10 Q7-12 5-12z" fill="none" stroke-linecap="round"/>
      <line x1="-2" y1="8" x2="2" y2="8"/>
    </symbol>
    <symbol id="ic-people" viewBox="-14 -14 28 28">
      <circle cx="-4" cy="-6" r="4" fill="none"/><path d="M-12 12 Q-12 4-4 4 L4 4 Q12 4 12 12" fill="none" stroke-linecap="round"/>
      <circle cx="7" cy="-7" r="3" fill="none"/><path d="M4 12 Q4 6 10 6 L14 6" fill="none" stroke-linecap="round"/>
    </symbol>
    <symbol id="ic-person" viewBox="-14 -14 28 28">
      <circle cx="0" cy="-6" r="5" fill="none"/><path d="M-11 13 Q-11 4 0 4 Q11 4 11 13" fill="none" stroke-linecap="round"/>
    </symbol>
    <symbol id="ic-camera" viewBox="-14 -14 28 28">
      <path d="M-12-5 Q-12-9-8-9 L-5-9 L-3-13 L3-13 L5-9 L8-9 Q12-9 12-5 L12 7 Q12 11 8 11 L-8 11 Q-12 11-12 7z" fill="none" stroke-linecap="round" stroke-linejoin="round"/>
      <circle cx="0" cy="1" r="4" fill="none"/>
    </symbol>
    <symbol id="ic-smile" viewBox="-14 -14 28 28">
      <circle cx="0" cy="0" r="12" fill="none"/>
      <path d="M-5 4 Q0 8 5 4" fill="none" stroke-linecap="round"/>
      <circle cx="-4" cy="-3" r="1.5" fill="currentColor"/><circle cx="4" cy="-3" r="1.5" fill="currentColor"/>
    </symbol>
    <symbol id="ic-star" viewBox="-14 -14 28 28">
      <polygon points="0,-13 3,-4 12,-4 5,2 7,11 0,6 -7,11 -5,2 -12,-4 -3,-4" fill="none" stroke-linecap="round" stroke-linejoin="round"/>
    </symbol>
    <symbol id="ic-hash" viewBox="-14 -14 28 28">
      <line x1="-4" y1="-13" x2="-4" y2="13"/><line x1="4" y1="-13" x2="4" y2="13"/>
      <line x1="-12" y1="-4" x2="12" y2="-4"/><line x1="-12" y1="4" x2="12" y2="4"/>
    </symbol>
    <symbol id="ic-pin" viewBox="-14 -14 28 28">
      <path d="M0-13 Q9-13 9-5 Q9 3 0 13 Q-9 3-9-5 Q-9-13 0-13z" fill="none" stroke-linecap="round" stroke-linejoin="round"/>
      <circle cx="0" cy="-5" r="3.5" fill="none"/>
    </symbol>
    <symbol id="ic-shield" viewBox="-14 -14 28 28">
      <path d="M0-13 L10-9 L10-2 Q10 9 0 13 Q-10 9-10-2 L-10-9z" fill="none" stroke-linecap="round" stroke-linejoin="round"/>
      <polyline points="-4,2 -1,6 6,-4" fill="none" stroke-linecap="round" stroke-linejoin="round"/>
    </symbol>
    <symbol id="ic-store" viewBox="-14 -14 28 28">
      <rect x="-12" y="-2" width="24" height="15" rx="1" fill="none"/>
      <path d="M-12-2 L-10-10 L10-10 L12-2" fill="none" stroke-linecap="round" stroke-linejoin="round"/>
      <line x1="-12" y1="-2" x2="12" y2="-2"/>
      <rect x="-3" y="3" width="6" height="10" rx="1" fill="none"/>
    </symbol>
    <symbol id="ic-music" viewBox="-14 -14 28 28">
      <path d="M-2-12 L10-16 L10-3" fill="none" stroke-linecap="round" stroke-linejoin="round"/>
      <path d="M-2-12 L-2 8 Q-2 13-7 13 Q-12 13-12 8 Q-12 3-7 3 Q-4 3-2 5z" fill="none" stroke-linecap="round" stroke-linejoin="round"/>
    </symbol>
    <symbol id="ic-gift" viewBox="-14 -14 28 28">
      <rect x="-11" y="-1" width="22" height="14" rx="1" fill="none"/>
      <rect x="-11" y="-7" width="22" height="6" rx="1" fill="none"/>
      <line x1="0" y1="-7" x2="0" y2="13"/>
      <path d="M0-7 Q-2-12-5-10 Q-8-8 0-5" fill="none" stroke-linecap="round" stroke-linejoin="round"/>
      <path d="M0-7 Q2-12 5-10 Q8-8 0-5" fill="none" stroke-linecap="round" stroke-linejoin="round"/>
    </symbol>
    <symbol id="ic-bell" viewBox="-14 -14 28 28">
      <path d="M0-13 Q8-11 8-3 L8 6 L10 8 L-10 8 L-8 6 L-8-3 Q-8-11 0-13z" fill="none" stroke-linecap="round" stroke-linejoin="round"/>
      <line x1="0" y1="-13" x2="0" y2="-15"/>
      <path d="M-3 8 Q0 13 3 8" fill="none" stroke-linecap="round"/>
    </symbol>
    <symbol id="ic-doc" viewBox="-14 -14 28 28">
      <path d="M-9-14 L4-14 L12-6 L12 14 L-9 14z" fill="none" stroke-linecap="round" stroke-linejoin="round"/>
      <polyline points="4,-14 4,-6 12,-6" fill="none" stroke-linecap="round" stroke-linejoin="round"/>
      <line x1="-5" y1="-2" x2="7" y2="-2"/><line x1="-5" y1="3" x2="7" y2="3"/><line x1="-5" y1="8" x2="2" y2="8"/>
    </symbol>
    <symbol id="ic-game" viewBox="-14 -14 28 28">
      <path d="M-13-5 Q-13-11-7-11 L7-11 Q13-11 13-5 L13 5 Q13 13 7 13 L4 13 L0 8 L-4 13 L-7 13 Q-13 13-13 5z" fill="none" stroke-linecap="round" stroke-linejoin="round"/>
      <line x1="-8" y1="-4" x2="-8" y2="4"/><line x1="-12" y1="0" x2="-4" y2="0"/>
      <circle cx="7" cy="-2" r="2" fill="none"/><circle cx="10" cy="3" r="2" fill="none"/>
    </symbol>
    <symbol id="ic-play" viewBox="-14 -14 28 28">
      <circle cx="0" cy="0" r="13" fill="none"/>
      <polygon points="-4,-7 10,0 -4,7" fill="none" stroke-linecap="round" stroke-linejoin="round"/>
    </symbol>
    <symbol id="ic-send" viewBox="-14 -14 28 28">
      <polygon points="-13,0 13,-11 5,13 0,2" fill="none" stroke-linecap="round" stroke-linejoin="round"/>
      <line x1="0" y1="2" x2="4" y2="-5"/>
    </symbol>
    <symbol id="ic-search" viewBox="-14 -14 28 28">
      <circle cx="-3" cy="-3" r="9" fill="none"/>
      <line x1="4" y1="4" x2="13" y2="13"/>
    </symbol>
    <symbol id="ic-heart" viewBox="-14 -14 28 28">
      <path d="M0 10 Q-13 2-13-6 Q-13-14-5-14 Q-2-14 0-9 Q2-14 5-14 Q13-14 13-6 Q13 2 0 10z" fill="none" stroke-linecap="round" stroke-linejoin="round"/>
    </symbol>
    <symbol id="ic-photo" viewBox="-14 -14 28 28">
      <rect x="-13" y="-10" width="26" height="20" rx="2" fill="none"/>
      <path d="M-13 3 L-7-4 L-1 3 L5-4 L13 5" fill="none" stroke-linecap="round" stroke-linejoin="round"/>
      <circle cx="4" cy="-4" r="3" fill="none"/>
    </symbol>
    <symbol id="ic-mic" viewBox="-14 -14 28 28">
      <rect x="-5" y="-14" width="10" height="16" rx="5" fill="none"/>
      <path d="M-10-4 Q-10 9 0 9 Q10 9 10-4" fill="none" stroke-linecap="round"/>
      <line x1="0" y1="9" x2="0" y2="14"/><line x1="-5" y1="14" x2="5" y2="14"/>
    </symbol>
    <symbol id="ic-settings" viewBox="-14 -14 28 28">
      <circle cx="0" cy="0" r="4" fill="none"/>
      <path d="M0-12 L0-8 M0 8 L0 12 M-11-6 L-8-4 M8 4 L11 6 M11-6 L8-4 M-8 4 L-11 6 M-12 0 L-8 0 M8 0 L12 0 M-8-4 L-11-6 M11 6 L8 4" stroke-linecap="round"/>
    </symbol>
    <symbol id="ic-globe" viewBox="-14 -14 28 28">
      <circle cx="0" cy="0" r="12" fill="none"/>
      <path d="M0-12 Q-6 0 0 12 M0-12 Q6 0 0 12" fill="none" stroke-linecap="round"/>
      <line x1="-12" y1="0" x2="12" y2="0"/>
      <path d="M-10-6 Q0-2 10-6 M-10 6 Q0 2 10 6" fill="none" stroke-linecap="round"/>
    </symbol>
    <symbol id="ic-cart" viewBox="-14 -14 28 28">
      <path d="M-13-12 L-8-12 L-2 7 L9 7 L13-5 L-5-5" fill="none" stroke-linecap="round" stroke-linejoin="round"/>
      <circle cx="-1" cy="12" r="2" fill="none"/><circle cx="9" cy="12" r="2" fill="none"/>
    </symbol>
    <symbol id="ic-pencil" viewBox="-14 -14 28 28">
      <path d="M-12 11 L-8-3 L7-13 Q12-13 12-8 L2 8z" fill="none" stroke-linecap="round" stroke-linejoin="round"/>
      <line x1="-12" y1="11" x2="-8" y2="-3"/>
      <line x1="4" y1="-11" x2="10" y2="-5"/>
    </symbol>
    <symbol id="ic-diamond" viewBox="-14 -14 28 28">
      <polygon points="0,-13 10,-3 0,13 -10,-3" fill="none" stroke-linecap="round" stroke-linejoin="round"/>
      <line x1="-10" y1="-3" x2="10" y2="-3"/>
      <line x1="-5" y1="-3" x2="0" y2="13"/><line x1="5" y1="-3" x2="0" y2="13"/>
    </symbol>
    <!-- BrutePawa "b" logo symbol -->
    <symbol id="ic-logo" viewBox="-20 -20 40 40">
      <rect x="-18" y="-18" width="36" height="36" rx="10" fill="none" stroke-width="2"/>
      <path d="M-7-15 L-7 15 M-7 1 Q-7-8 3-8 Q13-8 13 1 Q13 10 3 10 L-7 10z" fill="none" stroke-linecap="round" stroke-linejoin="round" stroke-width="2.2"/>
    </symbol>
  </defs>

  <!-- BACKGROUND -->
  <rect width="720" height="1560" fill="url(#bg)"/>

  <!-- ICONS — stroke #22C55E at ~0.22 opacity -->
  <g fill="#22C55E" stroke="#22C55E" stroke-width="1.5" stroke-linecap="round" stroke-linejoin="round" opacity="0.22">

    <!-- Row 0 ~y=40 -->
    <use href="#ic-video"  transform="translate(52,42) scale(1.0)"/>
    <use href="#ic-people" transform="translate(180,28) scale(0.85)"/>
    <use href="#ic-heart"  transform="translate(320,50) scale(0.65)"/>
    <use href="#ic-people" transform="translate(440,35) scale(0.75)"/>
    <use href="#ic-smile"  transform="translate(560,52) scale(0.7) rotate(10)"/>
    <use href="#ic-chat"   transform="translate(660,32) scale(0.9)"/>

    <!-- Row 1 ~y=110 -->
    <use href="#ic-phone"  transform="translate(28,105) scale(0.7)"/>
    <use href="#ic-star"   transform="translate(120,120) scale(0.65) rotate(20)"/>
    <use href="#ic-send"   transform="translate(255,108) scale(0.8) rotate(-15)"/>
    <use href="#ic-camera" transform="translate(395,115) scale(0.95)"/>
    <use href="#ic-hash"   transform="translate(520,105) scale(0.75)"/>
    <use href="#ic-bell"   transform="translate(635,118) scale(0.8)"/>

    <!-- Row 2 ~y=180 -->
    <use href="#ic-pin"    transform="translate(72,182) scale(0.9)"/>
    <use href="#ic-photo"  transform="translate(200,178) scale(0.85)"/>
    <use href="#ic-person" transform="translate(340,190) scale(0.7)"/>
    <use href="#ic-mic"    transform="translate(470,180) scale(0.75)"/>
    <use href="#ic-star"   transform="translate(590,185) scale(0.6) rotate(-10)"/>
    <use href="#ic-chat"   transform="translate(685,175) scale(0.7)"/>

    <!-- Row 3 ~y=255 -->
    <use href="#ic-people" transform="translate(35,255) scale(0.8)"/>
    <use href="#ic-globe"  transform="translate(160,265) scale(0.9)"/>
    <use href="#ic-shield" transform="translate(295,255) scale(0.85)"/>
    <use href="#ic-chat"   transform="translate(430,268) scale(1.1)"/>
    <use href="#ic-camera" transform="translate(570,258) scale(0.7)"/>
    <use href="#ic-diamond"transform="translate(672,262) scale(0.65) rotate(5)"/>

    <!-- BrutePawa logo 1 ~y=320 -->
    <use href="#ic-logo"   transform="translate(270,320) scale(1.4)" opacity="0.9"/>
    <text x="300" y="338" font-family="Arial,sans-serif" font-size="13" font-weight="600" fill="#22C55E" opacity="0.9" text-anchor="start">BrutePawa</text>

    <!-- Row 4 ~y=380 -->
    <use href="#ic-music"  transform="translate(55,378) scale(0.85)"/>
    <use href="#ic-search" transform="translate(178,390) scale(0.9)"/>
    <use href="#ic-doc"    transform="translate(330,375) scale(0.75)"/>
    <use href="#ic-gift"   transform="translate(470,385) scale(0.9)"/>
    <use href="#ic-play"   transform="translate(605,380) scale(0.8)"/>
    <use href="#ic-heart"  transform="translate(685,392) scale(0.6) rotate(-15)"/>

    <!-- Row 5 ~y=455 -->
    <use href="#ic-settings"transform="translate(30,452) scale(0.75)"/>
    <use href="#ic-star"   transform="translate(140,465) scale(0.6) rotate(15)"/>
    <use href="#ic-game"   transform="translate(260,455) scale(0.85)"/>
    <use href="#ic-bell"   transform="translate(415,468) scale(0.7)"/>
    <use href="#ic-pin"    transform="translate(548,455) scale(0.8)"/>
    <use href="#ic-send"   transform="translate(660,460) scale(0.75) rotate(10)"/>

    <!-- Row 6 ~y=530 -->
    <use href="#ic-globe"  transform="translate(85,528) scale(0.8)"/>
    <use href="#ic-chat"   transform="translate(218,540) scale(0.9)"/>
    <use href="#ic-hash"   transform="translate(355,530) scale(0.7)"/>
    <use href="#ic-camera" transform="translate(488,542) scale(0.85)"/>
    <use href="#ic-store"  transform="translate(620,530) scale(0.8)"/>

    <!-- Row 7 ~y=610 -->
    <use href="#ic-person" transform="translate(40,608) scale(0.7)"/>
    <use href="#ic-photo"  transform="translate(168,618) scale(0.8)"/>
    <use href="#ic-settings"transform="translate(310,608) scale(0.75) rotate(-10)"/>
    <use href="#ic-play"   transform="translate(450,620) scale(0.85)"/>
    <use href="#ic-gift"   transform="translate(590,610) scale(0.75)"/>
    <use href="#ic-star"   transform="translate(678,622) scale(0.6) rotate(20)"/>

    <!-- Row 8 ~y=685 -->
    <use href="#ic-music"  transform="translate(68,682) scale(0.9)"/>
    <use href="#ic-game"   transform="translate(210,695) scale(0.8)"/>
    <use href="#ic-doc"    transform="translate(360,682) scale(0.85)"/>
    <use href="#ic-send"   transform="translate(508,690) scale(0.7) rotate(-20)"/>
    <use href="#ic-phone"  transform="translate(632,685) scale(0.75)"/>

    <!-- BrutePawa logo 2 ~y=760 -->
    <use href="#ic-logo"   transform="translate(115,758) scale(1.4)" opacity="0.9"/>
    <text x="145" y="776" font-family="Arial,sans-serif" font-size="13" font-weight="600" fill="#22C55E" opacity="0.9" text-anchor="start">BrutePawa</text>

    <!-- Row 9 ~y=820 -->
    <use href="#ic-bell"   transform="translate(35,818) scale(0.8)"/>
    <use href="#ic-heart"  transform="translate(160,830) scale(0.7) rotate(10)"/>
    <use href="#ic-shield" transform="translate(300,818) scale(0.9)"/>
    <use href="#ic-smile"  transform="translate(442,828) scale(0.85)"/>
    <use href="#ic-cart"   transform="translate(580,820) scale(0.8)"/>
    <use href="#ic-star"   transform="translate(672,832) scale(0.65) rotate(-15)"/>

    <!-- Row 10 ~y=900 -->
    <use href="#ic-video"  transform="translate(70,898) scale(0.85)"/>
    <use href="#ic-people" transform="translate(205,908) scale(0.8)"/>
    <use href="#ic-pin"    transform="translate(352,898) scale(0.9)"/>
    <use href="#ic-mic"    transform="translate(490,910) scale(0.8)"/>
    <use href="#ic-pencil" transform="translate(620,900) scale(0.75)"/>

    <!-- Row 11 ~y=975 -->
    <use href="#ic-search" transform="translate(40,972) scale(0.85)"/>
    <use href="#ic-hash"   transform="translate(175,982) scale(0.7)"/>
    <use href="#ic-chat"   transform="translate(320,972) scale(0.9)"/>
    <use href="#ic-store"  transform="translate(462,980) scale(0.8)"/>
    <use href="#ic-globe"  transform="translate(605,972) scale(0.85)"/>
    <use href="#ic-heart"  transform="translate(685,985) scale(0.6) rotate(15)"/>

    <!-- Row 12 ~y=1050 -->
    <use href="#ic-camera" transform="translate(60,1048) scale(0.8)"/>
    <use href="#ic-diamond"transform="translate(195,1058) scale(0.7) rotate(-5)"/>
    <use href="#ic-game"   transform="translate(340,1048) scale(0.85)"/>
    <use href="#ic-play"   transform="translate(488,1060) scale(0.9)"/>
    <use href="#ic-music"  transform="translate(628,1050) scale(0.8)"/>

    <!-- Row 13 ~y=1125 -->
    <use href="#ic-person" transform="translate(38,1122) scale(0.75)"/>
    <use href="#ic-bell"   transform="translate(165,1132) scale(0.85)"/>
    <use href="#ic-send"   transform="translate(305,1122) scale(0.8) rotate(-10)"/>
    <use href="#ic-photo"  transform="translate(445,1132) scale(0.85)"/>
    <use href="#ic-settings"transform="translate(585,1122) scale(0.75) rotate(10)"/>
    <use href="#ic-star"   transform="translate(676,1135) scale(0.65) rotate(20)"/>

    <!-- Row 14 ~y=1200 -->
    <use href="#ic-phone"  transform="translate(72,1198) scale(0.8)"/>
    <use href="#ic-gift"   transform="translate(205,1210) scale(0.85)"/>
    <use href="#ic-shield" transform="translate(350,1200) scale(0.9)"/>
    <use href="#ic-smile"  transform="translate(492,1208) scale(0.8) rotate(5)"/>
    <use href="#ic-cart"   transform="translate(628,1200) scale(0.75)"/>

    <!-- Row 15 ~y=1275 -->
    <use href="#ic-globe"  transform="translate(45,1272) scale(0.85)"/>
    <use href="#ic-chat"   transform="translate(182,1282) scale(0.9)"/>
    <use href="#ic-pin"    transform="translate(330,1272) scale(0.8)"/>
    <use href="#ic-video"  transform="translate(468,1285) scale(0.85)"/>
    <use href="#ic-doc"    transform="translate(608,1272) scale(0.75)"/>
    <use href="#ic-heart"  transform="translate(685,1282) scale(0.6) rotate(-10)"/>

    <!-- Row 16 ~y=1350 -->
    <use href="#ic-people" transform="translate(62,1348) scale(0.8)"/>
    <use href="#ic-photo"  transform="translate(195,1358) scale(0.85)"/>
    <use href="#ic-star"   transform="translate(338,1348) scale(0.65) rotate(15)"/>
    <use href="#ic-play"   transform="translate(472,1360) scale(0.9)"/>
    <use href="#ic-mic"    transform="translate(612,1350) scale(0.8)"/>

    <!-- Row 17 ~y=1420 -->
    <use href="#ic-music"  transform="translate(38,1418) scale(0.85)"/>
    <use href="#ic-pencil" transform="translate(168,1428) scale(0.75)"/>
    <use href="#ic-bell"   transform="translate(305,1418) scale(0.8)"/>
    <use href="#ic-game"   transform="translate(445,1428) scale(0.85)"/>
    <use href="#ic-store"  transform="translate(590,1418) scale(0.8)"/>
    <use href="#ic-send"   transform="translate(672,1432) scale(0.7) rotate(15)"/>

    <!-- Row 18 ~y=1500 -->
    <use href="#ic-camera" transform="translate(75,1498) scale(0.8)"/>
    <use href="#ic-diamond"transform="translate(210,1508) scale(0.65) rotate(-5)"/>
    <use href="#ic-smile"  transform="translate(350,1498) scale(0.85)"/>
    <use href="#ic-people" transform="translate(490,1510) scale(0.8)"/>
    <use href="#ic-cart"   transform="translate(628,1500) scale(0.75)"/>

    <!-- Small scattered dots/sparkles -->
    <circle cx="142" cy="55"  r="3"/><circle cx="380" cy="165" r="2.5"/>
    <circle cx="510" cy="90"  r="2"/><circle cx="92"  cy="200" r="2.5"/>
    <circle cx="650" cy="245" r="3"/><circle cx="325" cy="305" r="2"/>
    <circle cx="185" cy="350" r="2.5"/><circle cx="558" cy="320" r="2"/>
    <circle cx="72"  cy="430" r="3"/><circle cx="420" cy="415" r="2.5"/>
    <circle cx="290" cy="510" r="2"/><circle cx="680" cy="500" r="3"/>
    <circle cx="148" cy="565" r="2.5"/><circle cx="522" cy="575" r="2"/>
    <circle cx="95"  cy="655" r="3"/><circle cx="385" cy="648" r="2.5"/>
    <circle cx="270" cy="738" r="2"/><circle cx="652" cy="748" r="2.5"/>
    <circle cx="50"  cy="785" r="3"/><circle cx="540" cy="792" r="2"/>
    <circle cx="230" cy="875" r="2.5"/><circle cx="688" cy="865" r="3"/>
    <circle cx="122" cy="955" r="2"/><circle cx="475" cy="948" r="2.5"/>
    <circle cx="365" cy="1038" r="3"/><circle cx="660" cy="1025" r="2"/>
    <circle cx="88"  cy="1095" r="2.5"/><circle cx="530" cy="1088" r="3"/>
    <circle cx="250" cy="1172" r="2"/><circle cx="685" cy="1162" r="2.5"/>
    <circle cx="155" cy="1248" r="3"/><circle cx="440" cy="1255" r="2"/>
    <circle cx="580" cy="1322" r="2.5"/><circle cx="100" cy="1398" r="3"/>
    <circle cx="395" cy="1390" r="2"/><circle cx="265" cy="1478" r="2.5"/>
    <circle cx="560" cy="1468" r="3"/><circle cx="680" cy="1540" r="2"/>
  </g>
</svg>
